# xmcd
#
# Track frame offsets:
#  182
#  11917
#  24707
#  37870
#  50627
#  62280
#  72990
#  88362
#  99992
#  111925
#  123322
#  133842
#  146255
#  159700
#  168527
#  182360
#  194745
#  204755
#  220545
#  234855
#  246707
#  262327
#
# Disc length: 3665 seconds
#
# Revision: 2
# Processed by: cddbd v1.5.1PL2 Copyright (c) Steve Scherf et al.
# Submitted via: Collectorz.com_Music_Collector 6.10
#
DISCID=420e4f16
DTITLE=Sonny Boy Williamson - The Best Of Sonny Boy Williamson
DYEAR=1990
DGENRE=Blues - Chicago Blues
TTITLE0=Don't Start Me To Talkin'
TTITLE1=All My Love In Vain
TTITLE2=Let Me Explain
TTITLE3=Keep It To Yourself
TTITLE4=The Key (To Your Door)
TTITLE5=Fattening Frogs For Snakes
TTITLE6=Cross My Heart
TTITLE7=Born Blind
TTITLE8=Ninety Nine
TTITLE9=Your Funeral And My Trial
TTITLE10=Let Your Conscience Be Your Guide
TTITLE11=The Goat
TTITLE12=It's Sad To Be Alone
TTITLE13=Checkin' Up On My Baby
TTITLE14=Lonesome Cabin
TTITLE15=Trust My Baby
TTITLE16=Too Close Together
TTITLE17=Nine Below Zero
TTITLE18=Help Me
TTITLE19=Bring It On Home
TTITLE20=Decoration Day
TTITLE21=One Way Out
EXTD=
EXTT0=
EXTT1=
EXTT2=
EXTT3=
EXTT4=
EXTT5=
EXTT6=
EXTT7=
EXTT8=
EXTT9=
EXTT10=
EXTT11=
EXTT12=
EXTT13=
EXTT14=
EXTT15=
EXTT16=
EXTT17=
EXTT18=
EXTT19=
EXTT20=
EXTT21=
PLAYORDER=
